<svg width="1122" height="222" viewBox="0 0 1122 222" fill="none" xmlns="http://www.w3.org/2000/svg">
<path d="M56.1716 78.9904C62.2258 78.9389 68.2361 80.0224 73.8912 82.1851C69.7323 61.3073 63.3177 48.5381 56.1368 48.5476H56.129C48.9499 48.5615 42.5718 61.3437 38.4658 82.2268C44.1135 80.0517 50.1188 78.9539 56.1707 78.9904H56.1716Z" fill="url(#paint0_linear_306_41)"/>
<path d="M56.5924 177.672L47.4553 177.684C49.7604 191.988 53.0193 194.663 56.6219 194.658C60.2245 194.653 63.4609 191.968 65.7347 177.661L56.5924 177.672Z" fill="url(#paint1_linear_306_41)"/>
<path d="M78.8087 136.993C78.4346 126.307 77.6952 115.076 76.4827 103.362C75.8613 97.3577 75.1511 91.5139 74.3521 85.8303C62.6584 81.3131 49.6987 81.3283 38.0154 85.8729C37.2361 91.6108 36.5418 97.5095 35.9325 103.569C34.7522 115.372 34.0405 126.691 33.6899 137.467C23.5964 144.931 16.6273 159.088 16.6507 177.66L33.4243 177.638C36.4932 177.638 38.3201 176.857 38.3201 173.726L38.3097 173.667L56.294 173.645L74.8667 173.621C74.8667 176.936 76.6216 177.584 79.7035 177.58L96.5404 177.559C96.5144 158.632 89.2346 144.232 78.8087 136.993ZM56.1864 91.2911C57.5658 91.2892 58.9148 91.6965 60.0628 92.4612C61.2108 93.226 62.1062 94.3142 62.6358 95.5879C63.1654 96.8616 63.3054 98.2638 63.0381 99.617C62.7707 100.97 62.1081 102.214 61.1339 103.191C60.1598 104.167 58.9179 104.833 57.5653 105.104C56.2127 105.375 54.8102 105.239 53.5351 104.712C52.26 104.186 51.1697 103.293 50.4019 102.147C49.6341 101.001 49.2233 99.6536 49.2216 98.2742C49.2195 96.4246 49.9521 94.6501 51.2582 93.3406C52.5642 92.031 54.3369 91.2938 56.1864 91.2911ZM56.2159 114.012C57.5951 114.01 58.9439 114.417 60.0916 115.182C61.2394 115.947 62.1345 117.034 62.6639 118.308C63.1932 119.582 63.3331 120.984 63.0657 122.337C62.7983 123.69 62.1357 124.933 61.1617 125.909C60.1877 126.887 58.9459 127.552 57.5935 127.823C56.2411 128.094 54.8388 127.957 53.564 127.431C52.289 126.905 51.1988 126.013 50.4311 124.866C49.6635 123.721 49.2528 122.373 49.2511 120.994C49.249 119.144 49.9816 117.369 51.2877 116.061C52.5938 114.751 54.3665 114.014 56.2159 114.012ZM56.2627 150.68C54.8835 150.681 53.5348 150.274 52.387 149.509C51.2393 148.744 50.3441 147.657 49.8148 146.383C49.2854 145.11 49.1456 143.707 49.4129 142.354C49.6803 141.001 50.343 139.758 51.317 138.781C52.291 137.805 53.5327 137.139 54.8851 136.868C56.2375 136.597 57.6398 136.734 58.9146 137.26C60.1896 137.786 61.2798 138.679 62.0474 139.825C62.8152 140.971 63.2259 142.318 63.2275 143.698C63.2286 144.613 63.0494 145.52 62.7 146.367C62.3505 147.213 61.8378 147.983 61.1909 148.632C60.5441 149.28 59.7759 149.794 58.9302 150.146C58.0844 150.497 57.1777 150.68 56.2619 150.681L56.2627 150.68Z" fill="url(#paint2_linear_306_41)"/>
<path d="M56.1943 94.1995C55.1263 94.2164 54.1079 94.6529 53.3591 95.4145C52.6103 96.1763 52.1912 97.202 52.1926 98.2702C52.194 99.3383 52.6156 100.363 53.3664 101.123C54.1171 101.883 55.1367 102.316 56.2047 102.331C57.2829 102.329 58.3165 101.9 59.078 101.136C59.8395 100.373 60.2665 99.3381 60.2651 98.2599C60.2637 97.1816 59.834 96.148 59.0706 95.3866C58.3072 94.6251 57.2725 94.1981 56.1943 94.1995Z" fill="url(#paint3_linear_306_41)"/>
<path d="M56.2236 116.92H56.2158C55.1477 116.936 54.1293 117.373 53.3805 118.135C52.6317 118.897 52.2127 119.922 52.2141 120.99C52.2155 122.058 52.637 123.083 53.3878 123.843C54.1386 124.603 55.1582 125.037 56.2262 125.051C57.3045 125.05 58.3383 124.62 59.1 123.857C59.8618 123.094 60.289 122.058 60.2879 120.98C60.2867 119.902 59.8572 118.868 59.0938 118.107C58.3305 117.345 57.2958 116.918 56.2175 116.919L56.2236 116.92Z" fill="url(#paint4_linear_306_41)"/>
<path d="M56.2523 139.641H56.248C55.18 139.658 54.1615 140.094 53.4128 140.856C52.664 141.618 52.245 142.644 52.2463 143.712C52.2476 144.78 52.6694 145.805 53.4201 146.564C54.1708 147.325 55.1904 147.758 56.2584 147.772C57.3367 147.771 58.3702 147.342 59.1318 146.578C59.8934 145.814 60.3205 144.78 60.3192 143.702C60.3179 142.624 59.8884 141.59 59.125 140.828C58.3617 140.067 57.3271 139.64 56.2489 139.641H56.2523Z" fill="url(#paint5_linear_306_41)"/>
<path d="M78.2037 81.7045C74.7669 64.4553 68.1476 43.8864 56.1239 43.8864H56.005C46.3975 43.9984 39.0335 56.7389 34.1152 81.7557L34.1047 81.8095L32.73 89.6327C32.1737 93.171 31.679 96.8439 31.2546 100.582C31.1702 101.325 31.0882 102.075 31.009 102.83C30.4831 107.844 30.0691 113.111 29.774 118.518C28.2856 117.369 26.8713 116.128 25.5396 114.801C19.2288 108.499 14.9955 100.418 13.4072 91.6412C11.8189 82.8648 12.9514 73.8126 16.653 65.698C20.3546 57.5834 26.4483 50.7942 34.1172 46.2406C41.7861 41.687 50.6637 39.5866 59.5602 40.2209C68.4565 40.8551 76.9464 44.1938 83.8918 49.7893C90.8376 55.3849 95.906 62.9698 98.4185 71.5275C100.932 80.0851 100.769 89.2065 97.9516 97.6688C95.1336 106.131 89.797 113.53 82.656 118.873C82.347 113.328 81.9105 107.92 81.3542 102.766C81.2726 102.014 81.1889 101.265 81.1034 100.519C80.6694 96.7866 80.1695 93.1129 79.6037 89.5832L78.2037 81.7045Z" fill="url(#paint6_linear_306_41)"/>
<path d="M56.4008 27.3436C43.9121 27.3772 31.7856 31.5439 21.9138 39.1934C12.0418 46.8429 4.97967 57.545 1.82913 69.6299C-1.32141 81.7147 -0.38311 94.5026 4.49765 105.998C9.3784 117.493 17.9271 127.051 28.8098 133.177C28.9255 130.822 29.054 128.494 29.1952 126.193C22.613 121.94 17.1084 116.216 13.115 109.472C8.60197 101.826 6.1912 93.1226 6.12722 84.244C6.06324 75.3655 8.34832 66.628 12.7507 58.9175C17.1531 51.2071 23.5162 44.798 31.1947 40.3401C38.8732 35.8823 47.5941 33.5343 56.4728 33.5343C65.3516 33.5343 74.0724 35.8823 81.751 40.3401C89.429 44.798 95.7924 51.2071 100.195 58.9175C104.597 66.628 106.882 75.3655 106.818 84.244C106.755 93.1226 104.344 101.826 99.8307 109.472C95.7325 116.393 90.0444 122.236 83.2367 126.52C83.3779 128.81 83.5083 131.122 83.6281 133.457C94.6424 127.423 103.334 117.893 108.332 106.371C113.329 94.8487 114.348 81.9905 111.226 69.8254C108.105 57.6602 101.021 46.8807 91.0937 39.1881C81.1665 31.4953 68.9601 27.3273 56.4008 27.3418V27.3436Z" fill="url(#paint7_linear_306_41)"/>
<path d="M261.904 161.5H241.744L196.096 92.524V161.5H175.936V60.844H196.096L241.744 129.964V60.844H261.904V161.5ZM292.051 72.22C288.499 72.22 285.523 71.116 283.123 68.908C280.819 66.604 279.667 63.772 279.667 60.412C279.667 57.052 280.819 54.268 283.123 52.06C285.523 49.756 288.499 48.604 292.051 48.604C295.603 48.604 298.531 49.756 300.835 52.06C303.235 54.268 304.435 57.052 304.435 60.412C304.435 63.772 303.235 66.604 300.835 68.908C298.531 71.116 295.603 72.22 292.051 72.22ZM301.987 81.724V161.5H281.827V81.724H301.987ZM345.377 98.284V136.876C345.377 139.564 346.001 141.532 347.249 142.78C348.593 143.932 350.801 144.508 353.873 144.508H363.233V161.5H350.561C333.569 161.5 325.073 153.244 325.073 136.732V98.284H315.569V81.724H325.073V61.996H345.377V81.724H363.233V98.284H345.377ZM397.893 94.108C400.485 89.884 403.845 86.572 407.973 84.172C412.197 81.772 416.997 80.572 422.373 80.572V101.74H417.045C410.709 101.74 405.909 103.228 402.645 106.204C399.477 109.18 397.893 114.364 397.893 121.756V161.5H377.733V81.724H397.893V94.108ZM471.376 162.796C463.696 162.796 456.784 161.116 450.64 157.756C444.496 154.3 439.648 149.452 436.096 143.212C432.64 136.972 430.912 129.772 430.912 121.612C430.912 113.452 432.688 106.252 436.24 100.012C439.888 93.772 444.832 88.972 451.072 85.612C457.312 82.156 464.272 80.428 471.952 80.428C479.632 80.428 486.592 82.156 492.832 85.612C499.072 88.972 503.968 93.772 507.52 100.012C511.168 106.252 512.992 113.452 512.992 121.612C512.992 129.772 511.12 136.972 507.376 143.212C503.728 149.452 498.736 154.3 492.4 157.756C486.16 161.116 479.152 162.796 471.376 162.796ZM471.376 145.228C475.024 145.228 478.432 144.364 481.6 142.636C484.864 140.812 487.456 138.124 489.376 134.572C491.296 131.02 492.256 126.7 492.256 121.612C492.256 114.028 490.24 108.22 486.208 104.188C482.272 100.06 477.424 97.996 471.664 97.996C465.904 97.996 461.056 100.06 457.12 104.188C453.28 108.22 451.36 114.028 451.36 121.612C451.36 129.196 453.232 135.052 456.976 139.18C460.816 143.212 465.616 145.228 471.376 145.228ZM562.484 162.508C555.476 162.508 549.14 161.308 543.476 158.908C537.908 156.508 533.492 153.052 530.228 148.54C526.964 144.028 525.284 138.7 525.188 132.556H546.788C547.076 136.684 548.516 139.948 551.108 142.348C553.796 144.748 557.444 145.948 562.052 145.948C566.756 145.948 570.452 144.844 573.14 142.636C575.828 140.332 577.172 137.356 577.172 133.708C577.172 130.732 576.26 128.284 574.436 126.364C572.612 124.444 570.308 122.956 567.524 121.9C564.836 120.748 561.092 119.5 556.292 118.156C549.764 116.236 544.436 114.364 540.308 112.54C536.276 110.62 532.772 107.788 529.796 104.044C526.916 100.204 525.476 95.116 525.476 88.78C525.476 82.828 526.964 77.644 529.94 73.228C532.916 68.812 537.092 65.452 542.468 63.148C547.844 60.748 553.988 59.548 560.9 59.548C571.268 59.548 579.668 62.092 586.1 67.18C592.628 72.172 596.228 79.18 596.9 88.204H574.724C574.532 84.748 573.044 81.916 570.26 79.708C567.572 77.404 563.972 76.252 559.46 76.252C555.524 76.252 552.356 77.26 549.956 79.276C547.652 81.292 546.5 84.22 546.5 88.06C546.5 90.748 547.364 93.004 549.092 94.828C550.916 96.556 553.124 97.996 555.716 99.148C558.404 100.204 562.148 101.452 566.948 102.892C573.476 104.812 578.804 106.732 582.932 108.652C587.06 110.572 590.612 113.452 593.588 117.292C596.564 121.132 598.052 126.172 598.052 132.412C598.052 137.788 596.66 142.78 593.876 147.388C591.092 151.996 587.012 155.692 581.636 158.476C576.26 161.164 569.876 162.508 562.484 162.508ZM610.346 121.612C610.346 113.356 612.026 106.156 615.386 100.012C618.746 93.772 623.402 88.972 629.354 85.612C635.306 82.156 642.122 80.428 649.802 80.428C659.69 80.428 667.85 82.924 674.282 87.916C680.81 92.812 685.178 99.724 687.386 108.652H665.642C664.49 105.196 662.522 102.508 659.738 100.588C657.05 98.572 653.69 97.564 649.658 97.564C643.898 97.564 639.338 99.676 635.978 103.9C632.618 108.028 630.938 113.932 630.938 121.612C630.938 129.196 632.618 135.1 635.978 139.324C639.338 143.452 643.898 145.516 649.658 145.516C657.818 145.516 663.146 141.868 665.642 134.572H687.386C685.178 143.212 680.81 150.076 674.282 155.164C667.754 160.252 659.594 162.796 649.802 162.796C642.122 162.796 635.306 161.116 629.354 157.756C623.402 154.3 618.746 149.5 615.386 143.356C612.026 137.116 610.346 129.868 610.346 121.612ZM722.315 94.108C724.907 89.884 728.267 86.572 732.395 84.172C736.619 81.772 741.419 80.572 746.795 80.572V101.74H741.467C735.131 101.74 730.331 103.228 727.067 106.204C723.899 109.18 722.315 114.364 722.315 121.756V161.5H702.155V81.724H722.315V94.108ZM835.686 81.724V161.5H815.382V151.42C812.79 154.876 809.382 157.612 805.158 159.628C801.03 161.548 796.518 162.508 791.622 162.508C785.382 162.508 779.862 161.212 775.062 158.62C770.262 155.932 766.47 152.044 763.686 146.956C760.998 141.772 759.654 135.628 759.654 128.524V81.724H779.814V125.644C779.814 131.98 781.398 136.876 784.566 140.332C787.734 143.692 792.054 145.372 797.526 145.372C803.094 145.372 807.462 143.692 810.63 140.332C813.798 136.876 815.382 131.98 815.382 125.644V81.724H835.686ZM954.649 80.572C964.441 80.572 972.313 83.596 978.265 89.644C984.313 95.596 987.337 103.948 987.337 114.7V161.5H967.177V117.436C967.177 111.196 965.593 106.444 962.425 103.18C959.257 99.82 954.937 98.14 949.465 98.14C943.993 98.14 939.625 99.82 936.361 103.18C933.193 106.444 931.609 111.196 931.609 117.436V161.5H911.449V117.436C911.449 111.196 909.865 106.444 906.697 103.18C903.529 99.82 899.209 98.14 893.737 98.14C888.169 98.14 883.753 99.82 880.489 103.18C877.321 106.444 875.737 111.196 875.737 117.436V161.5H855.577V81.724H875.737V91.372C878.329 88.012 881.641 85.372 885.673 83.452C889.801 81.532 894.313 80.572 899.209 80.572C905.449 80.572 911.017 81.916 915.913 84.604C920.809 87.196 924.601 90.94 927.289 95.836C929.881 91.228 933.625 87.532 938.521 84.748C943.513 81.964 948.889 80.572 954.649 80.572Z" fill="#333333"/>
<defs>
<linearGradient id="paint0_linear_306_41" x1="56.1785" y1="192.088" x2="56.1785" y2="80.9807" gradientUnits="userSpaceOnUse">
<stop stop-color="#1153FC"/>
<stop offset="1" stop-color="#5581F1"/>
</linearGradient>
<linearGradient id="paint1_linear_306_41" x1="56.595" y1="192.108" x2="56.595" y2="80.9954" gradientUnits="userSpaceOnUse">
<stop stop-color="#1153FC"/>
<stop offset="1" stop-color="#5581F1"/>
</linearGradient>
<linearGradient id="paint2_linear_306_41" x1="56.5956" y1="192.131" x2="56.5956" y2="81.0253" gradientUnits="userSpaceOnUse">
<stop stop-color="#1153FC"/>
<stop offset="1" stop-color="#5581F1"/>
</linearGradient>
<linearGradient id="paint3_linear_306_41" x1="56.2289" y1="192.1" x2="56.2289" y2="80.9862" gradientUnits="userSpaceOnUse">
<stop stop-color="#1153FC"/>
<stop offset="1" stop-color="#5581F1"/>
</linearGradient>
<linearGradient id="paint4_linear_306_41" x1="56.251" y1="192.1" x2="56.251" y2="80.9911" gradientUnits="userSpaceOnUse">
<stop stop-color="#1153FC"/>
<stop offset="1" stop-color="#5581F1"/>
</linearGradient>
<linearGradient id="paint5_linear_306_41" x1="56.2828" y1="192.104" x2="56.2828" y2="80.9906" gradientUnits="userSpaceOnUse">
<stop stop-color="#1153FC"/>
<stop offset="1" stop-color="#5581F1"/>
</linearGradient>
<linearGradient id="paint6_linear_306_41" x1="56.4495" y1="192.045" x2="56.4495" y2="80.9883" gradientUnits="userSpaceOnUse">
<stop stop-color="#1153FC"/>
<stop offset="1" stop-color="#5581F1"/>
</linearGradient>
<linearGradient id="paint7_linear_306_41" x1="56.5001" y1="192.139" x2="56.5001" y2="81.0363" gradientUnits="userSpaceOnUse">
<stop stop-color="#1153FC"/>
<stop offset="1" stop-color="#5581F1"/>
</linearGradient>
</defs>
</svg>
